<svg xmlns="http://www.w3.org/2000/svg" width="256" height="256"><path fill-opacity=".427" d="M3 128v128h249V0H3v128" fill="#1976D2" fill-rule="evenodd"/><path fill-opacity=".507" d="M2.999 2.25L2.998 4.5l23.001-.286L49 3.928V103H85.605l1.218-9.759c2.73-21.877 8.867-41.814 17.465-56.741 5.604-9.729 19.152-23.036 28.212-27.71 8.499-4.384 16.47-6.775 25.904-7.77C162.307.608 128.938.21 84.25.136L3 0l-.001 2.25m176.193-1.207c18.914 2.206 35.407 11.616 46.911 26.766 10.432 13.738 17.774 32.494 22.192 56.691 1.956 10.71 2.191 15.385 2.185 43.5-.006 28.781-.208 32.579-2.346 44-8.685 46.395-28.496 72.901-60.544 81.001-14.551 3.677-35.916 2.286-48.904-3.185-29.941-12.613-48.909-46.599-52.188-93.509C85.457 141.415 87.782 143 66.981 143H49v109H26c-22.333 0-23 .058-23 2 0 1.989.667 2 124.5 2H252V0l-39.75.131c-24.78.082-37.23.426-33.058.912m-20.148 41.534c-9.162 3.975-15.256 11.945-19.985 26.135-4.063 12.193-6.012 26.465-6.731 49.288-1.62 51.409 6.714 84.074 23.87 93.556 6.862 3.792 16.969 4.117 23.347.749 9.189-4.853 15.818-15.383 19.945-31.684 6.061-23.936 6.983-68.337 2.007-96.638-5.112-29.077-15.827-43.018-32.997-42.934-3.3.016-7.555.704-9.456 1.528" fill="#1976D2" fill-rule="evenodd"/><path fill-opacity=".653" d="M3 2c0 1.943.667 2 23.5 2H50v98h34.909l.524-3.25c.288-1.788 1.018-6.764 1.623-11.058 4.165-29.597 15.682-55.028 31.478-69.502 9.403-8.616 22.561-15.024 35.229-17.157 2.606-.439-30.25-.851-73.013-.915C3.627.001 3 .016 3 2m182.5-.518c30.4 6.704 50.345 29.517 60.366 69.049 1.971 7.779 4.765 25.462 5.445 34.469.187 2.475.418-20.138.514-50.25L252 0l-36.25.079c-32.541.072-35.636.215-30.25 1.403m-23.506 40.393c-11.968 3.924-19.872 15.032-24.473 34.394-3.498 14.72-4.725 28.355-4.699 52.231.063 59.17 12.093 86.748 37.222 85.328 18.893-1.068 29.327-19.777 33.027-59.218 1.366-14.562.717-53.522-1.089-65.455-3.652-24.121-11.342-39.727-22.341-45.338-4.358-2.223-13.667-3.248-17.647-1.942M50 198v54H26.5c-22.833 0-23.5.057-23.5 2 0 1.984.637 1.999 78.75 1.91 68.348-.079 77.825-.265 71.75-1.413-13.093-2.474-20.759-5.86-31.32-13.832-19.878-15.006-33.685-48.04-36.745-87.915l-.672-8.75H50v54m201-47.03c0 2.733-.719 9.821-1.599 15.75-7.745 52.223-31.609 82.814-68.878 88.292-2.762.406 12.19.795 33.227.863L252 256v-55c0-30.25-.225-55-.5-55s-.5 2.236-.5 4.97" fill="#1976D2" fill-rule="evenodd"/></svg>